<svg id="Logo_Fundo" xmlns="http://www.w3.org/2000/svg" viewBox="0 0 1920 1080"><defs><style>.cls-1{fill:#0052f5;}.cls-2{fill:#fff;}</style></defs><rect class="cls-1" x="2.47" y="-2.27" width="1920" height="1085.02"/><path class="cls-2" d="M878.63,522.8a52.46,52.46,0,0,1,18.23,3.25,53.47,53.47,0,0,1,15.87,9.11,44.8,44.8,0,0,1,11.33,14.32,41.68,41.68,0,0,1,4.29,19.13V615.9q0,.35,0,.69-1.08,12.79-5.83,21.65A41.38,41.38,0,0,1,910,652.68a49.72,49.72,0,0,1-17.31,7.81,85.73,85.73,0,0,1-20.3,2.34A134.74,134.74,0,0,1,846,660.1a171,171,0,0,1-21.27-5.67,7.2,7.2,0,0,1-4.89-6.81V483.37A7.17,7.17,0,0,1,827,476.2h22.1a7.17,7.17,0,0,1,7.17,7.17v34.08a7.14,7.14,0,0,0,8.79,7A55.71,55.71,0,0,1,878.63,522.8ZM869.52,636a33.06,33.06,0,0,0,9.38-1.3,22,22,0,0,0,9.37-5.33,13,13,0,0,0,3.9-9.76V567.4a8.25,8.25,0,0,0-.09-1.22,14.23,14.23,0,0,0-4.73-8.63,24.28,24.28,0,0,0-9.07-5c-.28-.08-.57-.15-.86-.21a34.61,34.61,0,0,0-6.85-.69,28.09,28.09,0,0,0-3.91.26,36.1,36.1,0,0,0-5.31,1.09,7.13,7.13,0,0,0-5.1,6.87V628.1a7.11,7.11,0,0,0,5.5,7,29.85,29.85,0,0,0,5.43.68A11.6,11.6,0,0,0,869.52,636Z"/><path class="cls-2" d="M1004.35,522.8a74.36,74.36,0,0,1,13.14,1.39,7.17,7.17,0,0,1,5.87,7.06v14.93a7.2,7.2,0,0,1-7.72,7.14c-.81-.05-1.62-.07-2.44-.07h-1.82a36.09,36.09,0,0,0-11.58,2.34,21.76,21.76,0,0,0-8.72,6,14.18,14.18,0,0,0-3.39,9.63v81.85a7.17,7.17,0,0,1-7.17,7.17H958.68a7.17,7.17,0,0,1-7.17-7.17V570.69a44.44,44.44,0,0,1,4.82-21.08,45.51,45.51,0,0,1,12.36-15,54.25,54.25,0,0,1,17-8.85A61.94,61.94,0,0,1,1004.35,522.8Z"/><path class="cls-2" d="M1033,620.15q0-11.71,4-20a39.07,39.07,0,0,1,10.68-13.66,42.81,42.81,0,0,1,15.35-7.81,65,65,0,0,1,17.83-2.47,70.44,70.44,0,0,1,15.29,1.69,7.14,7.14,0,0,0,8.66-7v-.16q0-10.66-6.25-14.71a26.32,26.32,0,0,0-14.57-4,37.1,37.1,0,0,0-15.49,3.64,47,47,0,0,0-8.15,4.72,7.14,7.14,0,0,1-9.44-.92l-8.4-9a7.15,7.15,0,0,1,.22-10,59.26,59.26,0,0,1,17.7-12.1,68.73,68.73,0,0,1,26.16-5.46,67.65,67.65,0,0,1,19.65,2.86,49.32,49.32,0,0,1,16.92,8.85,45.06,45.06,0,0,1,12,15q4.56,9,4.56,21.21v77.17a7.2,7.2,0,0,1-4.94,6.82,177.09,177.09,0,0,1-20.18,5.42,125.91,125.91,0,0,1-25.64,2.73q-28.64,0-42.3-11.58T1033,620.15Zm54.4-17.44q-10.41,0-15.23,4.55a15.58,15.58,0,0,0-4.81,11.85,14.4,14.4,0,0,0,5.07,11.58q5.08,4.29,16,4.29a66,66,0,0,0,9.3-.62,7.12,7.12,0,0,0,6.06-7.09V611.06a7.13,7.13,0,0,0-5.39-6.95c-.69-.17-1.41-.34-2.16-.49A43.59,43.59,0,0,0,1087.39,602.71Z"/><path class="cls-2" d="M1211.81,683.14q10.41,0,16.4-6.25a18.58,18.58,0,0,0,3.71-5.86,7.13,7.13,0,0,0-8.42-9.52l-.11,0a48.58,48.58,0,0,1-11.06,1.3,63.64,63.64,0,0,1-18.61-2.73,46,46,0,0,1-15.75-8.2,40.64,40.64,0,0,1-15.1-32.79v-51q0-12.5,4.56-21.09a38.76,38.76,0,0,1,12.23-13.92,53,53,0,0,1,17.57-7.81,85.58,85.58,0,0,1,20.83-2.47,122.47,122.47,0,0,1,27.59,3.12,124.19,124.19,0,0,1,20.09,6.37,7.16,7.16,0,0,1,4.37,6.62V660q0,13.53-4.42,23.56a47.27,47.27,0,0,1-12,16.66,49.4,49.4,0,0,1-17.7,9.89,70.37,70.37,0,0,1-21.61,3.25,72.31,72.31,0,0,1-25.12-4.55,59.23,59.23,0,0,1-16.2-9,7.15,7.15,0,0,1-1.18-10l8.3-10.77a7.2,7.2,0,0,1,9.38-1.75,40,40,0,0,0,7.25,3.25A46.64,46.64,0,0,0,1211.81,683.14Zm6.51-132.49a25.26,25.26,0,0,0-14.32,4.16q-6.24,4.17-6.25,12.5V618a7.62,7.62,0,0,0,.09,1.18A14.48,14.48,0,0,0,1205.3,630a28.29,28.29,0,0,0,14.06,3.64,31.9,31.9,0,0,0,9.19-1.27,7.17,7.17,0,0,0,5.12-6.88V558.91a7.19,7.19,0,0,0-5.19-6.91c-.78-.22-1.56-.41-2.35-.57A39.86,39.86,0,0,0,1218.32,550.65Z"/><path class="cls-2" d="M1315.15,471a22.21,22.21,0,0,1,22.38,22.38,21.9,21.9,0,0,1-6.51,16.14,21.6,21.6,0,0,1-15.87,6.51,21.17,21.17,0,0,1-15.75-6.51,22.11,22.11,0,0,1-6.38-16.14,21.82,21.82,0,0,1,6.38-15.88A21.2,21.2,0,0,1,1315.15,471Zm11.57,189.23h-22.63a7.17,7.17,0,0,1-7.17-7.17V532.83a7.17,7.17,0,0,1,7.17-7.17h22.63a7.17,7.17,0,0,1,7.17,7.17V653.06A7.17,7.17,0,0,1,1326.72,660.23Z"/><path class="cls-2" d="M1404.16,631.6q8.07,0,10.94-6a14,14,0,0,0,1-5.2,11.62,11.62,0,0,0-1.26-5.14,6.13,6.13,0,0,0-.69-1.12q-3.51-4.49-12.11-5.72a61.44,61.44,0,0,1-19.65-6.24,50.89,50.89,0,0,1-13.66-10.42,41.49,41.49,0,0,1-8.2-13,39.07,39.07,0,0,1-2.74-14.32,41.23,41.23,0,0,1,3-15.35,39.09,39.09,0,0,1,8.85-13.41,43.25,43.25,0,0,1,14.44-9.37,52,52,0,0,1,19.78-3.51,88.81,88.81,0,0,1,20.83,2.86,54.62,54.62,0,0,1,16,6.82,7.14,7.14,0,0,1,1.9,10.23l-9.51,13.09a7.2,7.2,0,0,1-9.37,2,39.54,39.54,0,0,0-4.46-2.08,33.24,33.24,0,0,0-12.23-2.47,14.12,14.12,0,0,0-8.07,2.47q-3.82,2.6-4.21,9a6.91,6.91,0,0,0,1.26,4.41,21,21,0,0,0,5.29,5.05,31.49,31.49,0,0,0,6.12,3.26,22.43,22.43,0,0,0,5.33,1.56,86.11,86.11,0,0,1,13.28,4.42,54.08,54.08,0,0,1,12.49,7.42,36.26,36.26,0,0,1,9.37,11.33q3.64,6.76,3.65,16.39a43.7,43.7,0,0,1-4,19.27,41,41,0,0,1-10.8,13.92,44.92,44.92,0,0,1-15.62,8.33,61.45,61.45,0,0,1-18.22,2.73,68.94,68.94,0,0,1-26.42-5.07,50.15,50.15,0,0,1-18.21-13.23,7.21,7.21,0,0,1-.49-9.09l9.32-12.72a7.21,7.21,0,0,1,10.19-1.4,54.38,54.38,0,0,0,10.91,6.38Q1397.13,631.6,1404.16,631.6Z"/><path class="cls-2" d="M721.57,666.79l-.08.63c-5.09,40.9-39.85,72.23-80.86,72.87-27.77.46-54.69-13.93-70.36-37.59L745.56,533.4a12.71,12.71,0,0,0,4.06-9.07V511.07c0-9.37-7.48-11.8-36.37-11.8l-15.09,0c-41.46,0-41.46-23.5-41.46-34.79,0-14.19,0-27.59-17.38-41.75s-53-14.09-68.27-14.09H535.16V639.36A89.35,89.35,0,0,0,507,619.85a156.16,156.16,0,0,1-93.42-147.72C415.65,391.84,479.73,325,559.44,320a154.42,154.42,0,0,1,116.8,42.18A156,156,0,0,1,725,466.06l.05.67h24.57l0-.76A184,184,0,0,0,693,344a178.42,178.42,0,0,0-135.05-48.81C465.65,301,391.46,378.39,389,471.46c-1.94,74.3,40.54,141.51,108.21,171.23,16.33,7.18,22.35,19.85,30,35.88,3,6.35,6.14,12.91,10.23,19.81,1.08,1.84,7.68,11,10.12,14.15l.54.87.64,1h0c19.91,31.34,54.55,50.77,90.65,50.77H641a106.57,106.57,0,0,0,71.18-28.9,108.27,108.27,0,0,0,34-68.69M640.25,504.14v93.4a14.34,14.34,0,0,0,.13,2L615,622.24V443.49c7.78,6.83,13.12,13.77,13.12,22.27,0,1.48-.25,3-.25,4.29C627.89,481.58,624.6,489.76,640.25,504.14Zm-45.32-71v207L563.8,668V432.22h22.84A38.9,38.9,0,0,1,594.93,433.12ZM660.28,581.7V516.82c12.06,4.38,26.13,5.84,35.93,6.29l28.17,1.28Z"/></svg>